<?xml version="1.0" encoding="UTF-8"?><svg id="Calque_1" xmlns="http://www.w3.org/2000/svg" viewBox="0 0 500 500"><defs><style>.cls-1{fill:#203d52;}.cls-2{fill:#3ecfd9;}.cls-2,.cls-3,.cls-4{fill-rule:evenodd;}.cls-3{fill:#b077dd;}.cls-4{fill:#ffcc49;}</style></defs><rect class="cls-1" x=".67" y="-1.02" width="501.74" height="501.74"/><path class="cls-4" d="M270.69,67.47c0,14.51,11.77,26.28,26.28,26.28h113.16v113.16c0,14.52,11.77,26.28,26.28,26.28s26.28-11.77,26.28-26.28V41.18h-165.72c-14.52,0-26.28,11.77-26.28,26.28Z"/><path class="cls-2" d="M34.86,67.47c0,14.51,11.77,26.28,26.28,26.28h113.16v113.16c0,14.52,11.77,26.28,26.28,26.28s26.28-11.77,26.28-26.28V41.18H61.14c-14.52,0-26.28,11.77-26.28,26.28Z"/><path class="cls-3" d="M270.69,301.21c0,14.52,11.77,26.28,26.28,26.28h113.16v113.16c0,14.52,11.77,26.28,26.28,26.28s26.28-11.77,26.28-26.28v-165.72h-165.72c-14.52,0-26.28,11.77-26.28,26.28Z"/></svg>
